# xmcd CD database file
#
# Track frame offsets:
#	150
#	15377
#	30827
#	55611
#	70184
#	111756
#	143405
#	161240
#	172509
#	196429
#	215746
#	240271
#	262658
#	288623
#	307960
#
# Disc length: 4329 seconds
#
# Revision: 2
# Processed by: cddbd v1.4b41PL1 Copyright (c) Steve Scherf et al.
# Submitted via: Feurio! 1.52 - http://www.feurio.com
#
DISCID=b910e70f
DTITLE=DAVE BRUBECK - Birthday Celebration   CD2
DYEAR=1900
DGENRE=
TTITLE0=Trolley Song
TTITLE1=My Heart Stood Still
TTITLE2=I´ll Never Smile Again
TTITLE3=Laura
TTITLE4=All The Things You Are
TTITLE5=Stardust
TTITLE6=Sweet Cleo Brown
TTITLE7=In Search Of A Theme
TTITLE8=Divertimento
TTITLE9=Chorale
TTITLE10=Lydian Line
TTITLE11=Invention
TTITLE12=Siren Song
TTITLE13=Pan´s Pipes
TTITLE14=Pan Dance
EXTD=
EXTT0=
EXTT1=
EXTT2=
EXTT3=
EXTT4=
EXTT5=
EXTT6=
EXTT7=
EXTT8=
EXTT9=
EXTT10=
EXTT11=
EXTT12=
EXTT13=
EXTT14=
PLAYORDER=
